<svg xmlns="http://www.w3.org/2000/svg" viewBox="0 0 400 400">
  <defs>
    <linearGradient id="abg2" x1="0" y1="0" x2="400" y2="400" gradientUnits="userSpaceOnUse">
      <stop offset="0" stop-color="#111827"/><stop offset="1" stop-color="#1F2937"/>
    </linearGradient>
    <linearGradient id="carbody" x1="0" y1="0" x2="0" y2="1">
      <stop offset="0" stop-color="#374151"/><stop offset="1" stop-color="#111827"/>
    </linearGradient>
  </defs>
  <rect width="400" height="400" fill="url(#abg2)"/>
  <path d="M85 250 Q95 205 140 200 L155 175 Q170 160 200 160 L245 160 Q270 160 285 180 L305 205 Q325 210 330 240 L330 260 L85 260 Z" fill="url(#carbody)" stroke="#4B5563" stroke-width="3"/>
  <path d="M162 200 L178 178 Q188 170 202 170 L240 170 Q255 170 265 182 L280 200 Z" fill="#93C5FD" opacity="0.65"/>
  <circle cx="140" cy="262" r="26" fill="#111827" stroke="#9CA3AF" stroke-width="6"/>
  <circle cx="280" cy="262" r="26" fill="#111827" stroke="#9CA3AF" stroke-width="6"/>
</svg>
