<?xml version="1.0" encoding="UTF-8"?>
<svg version="1.1" xmlns="http://www.w3.org/2000/svg" width="286" height="302">
<path d="M0 0 C94.38 0 188.76 0 286 0 C286 99.66 286 199.32 286 302 C191.62 302 97.24 302 0 302 C0 202.34 0 102.68 0 0 Z " fill="#FCFCFD" transform="translate(0,0)"/>
<path d="M0 0 C7.26 0 14.52 0 22 0 C22.33 14.85 22.66 29.7 23 45 C27.970625 40.05 32.94125 35.1 38.0625 30 C39.61718994 28.45441406 41.17187988 26.90882812 42.77368164 25.31640625 C44.02770757 24.06530567 45.28154462 22.81401571 46.53515625 21.5625 C47.16869019 20.93408203 47.80222412 20.30566406 48.45495605 19.65820312 C53.84228664 14.27190836 59.07185919 8.77515968 63.4453125 2.5234375 C67.07553607 -1.03924703 71.6002581 -0.60218138 76.43609619 -0.5737915 C78.58337184 -0.52654064 80.72858703 -0.4515201 82.875 -0.375 C84.34109132 -0.34487484 85.80724197 -0.31750348 87.2734375 -0.29296875 C90.85019911 -0.22714448 94.42472044 -0.123767 98 0 C95.8714727 3.86402504 93.4683001 6.77549775 90.3449707 9.88208008 C89.65668686 10.570802 89.65668686 10.570802 88.95449829 11.2734375 C87.44962175 12.77693027 85.93780574 14.27323015 84.42578125 15.76953125 C83.37588051 16.81569847 82.32642297 17.86231064 81.27738953 18.90934753 C78.5248619 21.65426538 75.76637982 24.39312187 73.0065918 27.1307373 C70.18760511 29.92920824 67.37432248 32.73340063 64.56054688 35.53710938 C59.04591483 41.03033838 53.52497637 46.51717312 48 52 C52.57210964 61.23740573 59.10726836 68.93961411 65.61328125 76.859375 C69.66752241 81.79777965 73.61309344 86.81793671 77.54296875 91.85546875 C79.09777741 93.84532721 80.66176709 95.82807504 82.23828125 97.80078125 C82.88152344 98.60902344 83.52476562 99.41726562 84.1875 100.25 C84.73792969 100.93578125 85.28835937 101.6215625 85.85546875 102.328125 C87 104 87 104 87 106 C63.06235639 107.78900545 63.06235639 107.78900545 56.58984375 104.0078125 C54.35960001 101.13142337 52.71652497 98.20698974 51 95 C49.26843255 92.74229197 47.38646488 90.62875146 45.5 88.5 C44.5633743 87.40362461 43.62974543 86.30468154 42.69921875 85.203125 C42.24595215 84.66751953 41.79268555 84.13191406 41.32568359 83.58007812 C38.62818397 80.36493677 35.99458935 77.09748577 33.36328125 73.828125 C30.0004313 69.80382192 26.49912878 65.90585507 23 62 C23.04302246 62.74983154 23.08604492 63.49966309 23.13037109 64.2722168 C24.15967608 87.12946212 24.15967608 87.12946212 19.09765625 93.4765625 C15.72456816 96.83811472 11.98389367 99.40536156 8 102 C5.36 103.98 2.72 105.96 0 108 C0 72.36 0 36.72 0 0 Z " fill="#11161D" transform="translate(82,93)"/>
<path d="M0 0 C-0.58378418 0.38220703 -1.16756836 0.76441406 -1.76904297 1.15820312 C-15.64415141 10.16168643 -15.64415141 10.16168643 -28.75390625 20.21484375 C-31.39477606 22.31376114 -34.16474966 24.11049757 -37 25.9375 C-42.87535307 29.78660951 -47.93134545 34.15508911 -53 39 C-53.68707031 39.61230469 -54.37414062 40.22460938 -55.08203125 40.85546875 C-66.97884854 51.86061137 -74.20660615 67.46909236 -78.8125 82.75 C-79.0197168 83.43489502 -79.22693359 84.11979004 -79.44042969 84.82543945 C-83.97661033 100.7575309 -84.0470107 120.24984592 -79 136 C-78.7215625 136.97453125 -78.443125 137.9490625 -78.15625 138.953125 C-70.22843274 165.06024736 -52.52081238 184.6451404 -28.9375 197.625 C-7.46423676 209.07051844 19.60175976 212.09511856 43 205 C47.22828313 203.55402791 51.39377576 201.97216647 55.5390625 200.3046875 C58.40281135 199.22512529 60.98930687 198.47294413 64 198 C65.03319813 199.2608012 66.05124379 200.53403258 67.0625 201.8125 C67.63097656 202.52019531 68.19945312 203.22789062 68.78515625 203.95703125 C69.18605469 204.63121094 69.58695313 205.30539063 70 206 C69 209 69 209 67.41210938 210.01147461 C66.72955078 210.30546143 66.04699219 210.59944824 65.34375 210.90234375 C64.57659668 211.23355225 63.80944336 211.56476074 63.01904297 211.90600586 C62.18775879 212.24639893 61.35647461 212.58679199 60.5 212.9375 C59.64937988 213.29013916 58.79875977 213.64277832 57.92236328 214.00610352 C49.78021378 217.27247482 41.61125025 219.403273 33 221 C32.19949219 221.15082031 31.39898437 221.30164063 30.57421875 221.45703125 C28.36773851 221.77836332 26.22965338 221.91767434 24 222 C22.68773437 222.0515625 21.37546875 222.103125 20.0234375 222.15625 C9.6383904 222.42725264 0.09431046 221.3989565 -10 219 C-11.17046875 218.73316406 -12.3409375 218.46632813 -13.546875 218.19140625 C-41.8329261 210.99190229 -65.51974333 190.94445822 -80.61010742 166.38452148 C-90.59776818 149.32485249 -95.38377304 130.28963661 -95.25 110.625 C-95.25773437 109.49578125 -95.26546875 108.3665625 -95.2734375 107.203125 C-95.24853475 96.32062201 -94.03285031 85.70387711 -90.5 75.375 C-90.24500732 74.62702148 -89.99001465 73.87904297 -89.72729492 73.10839844 C-84.38703841 58.1749132 -76.49223399 44.8576617 -66 33 C-65.27296875 32.17242187 -64.5459375 31.34484375 -63.796875 30.4921875 C-51.54972194 17.4739174 -18.95010413 -5.81136527 0 0 Z " fill="#12171D" transform="translate(133,43)"/>
<path d="M0 0 C0.7001825 0.00105743 1.40036499 0.00211487 2.12176514 0.00320435 C11.90780229 0.09905626 20.53240286 1.27662389 27.97729492 8.11279297 C35.51994681 15.86917172 35.17634953 24.24273651 35.1875 34.5625 C35.21199219 35.75166016 35.23648438 36.94082031 35.26171875 38.16601562 C35.28852663 46.21284887 34.40093577 51.85305265 29.171875 58.078125 C28.37523437 58.72007812 28.37523437 58.72007812 27.5625 59.375 C27.04171875 59.81328125 26.5209375 60.2515625 25.984375 60.703125 C22.75096283 62.81996318 19.29150458 64.45163449 15.8125 66.125 C22.1058458 74.58528539 28.45522064 82.9958148 34.9375 91.3125 C35.52104248 92.06402344 36.10458496 92.81554687 36.70581055 93.58984375 C39.4264969 97.0889032 42.16363917 100.57035202 44.95703125 104.01171875 C45.43188965 104.60509033 45.90674805 105.19846191 46.39599609 105.80981445 C47.66027973 107.38800335 48.93710026 108.95612615 50.21484375 110.5234375 C51.8125 113.125 51.8125 113.125 51.62841797 115.14941406 C50.11513756 118.81352688 46.41024503 119.84709034 43 121.5 C42.27490234 121.88027344 41.54980469 122.26054687 40.80273438 122.65234375 C40.09826172 123.00167969 39.39378906 123.35101563 38.66796875 123.7109375 C38.02496826 124.0311084 37.38196777 124.3512793 36.71948242 124.68115234 C34.8125 125.125 34.8125 125.125 32.68383789 124.34350586 C30.15478468 122.69673423 28.82004365 120.76954603 27.0625 118.3125 C26.26961712 117.22164607 25.47522237 116.13189016 24.6796875 115.04296875 C24.23206055 114.42728027 23.78443359 113.8115918 23.32324219 113.17724609 C20.33452012 109.1172594 17.2517869 105.12805264 14.1875 101.125 C9.42135779 94.88723238 4.68709361 88.62819029 0 82.33081055 C-5.79597581 74.54624148 -11.69349472 66.88262419 -17.8894043 59.41088867 C-27.1875 48.17017955 -27.1875 48.17017955 -27.1875 46.125 C-26.08760742 46.1156543 -24.98771484 46.10630859 -23.85449219 46.09667969 C-19.76895834 46.05677063 -15.68417681 45.99100996 -11.59912109 45.91748047 C-9.83196689 45.88927603 -8.06468666 45.86805882 -6.29736328 45.85400391 C-3.75487778 45.83256642 -1.21390662 45.78591497 1.328125 45.734375 C2.51115204 45.73253204 2.51115204 45.73253204 3.71807861 45.73065186 C7.26026631 45.63632327 9.41168346 45.41559688 12.31616211 43.30981445 C14.53882174 40.06449205 14.23501828 37.44348974 14.125 33.5625 C14.11533203 32.89025391 14.10566406 32.21800781 14.09570312 31.52539062 C14.02619086 28.48196236 13.7803966 26.02868981 12.8125 23.125 C10.01998128 22.06755751 7.28356873 21.97930311 4.31933594 21.91967773 C3.43872498 21.89973251 2.55811401 21.87978729 1.65081787 21.85923767 C0.70901672 21.84252518 -0.23278442 21.82581268 -1.203125 21.80859375 C-2.17409119 21.78781265 -3.14505737 21.76703156 -4.14544678 21.74562073 C-7.24272685 21.68031138 -10.34009068 21.62132677 -13.4375 21.5625 C-15.53907111 21.51929708 -17.6406338 21.47568222 -19.7421875 21.43164062 C-24.89053948 21.32464902 -30.03897558 21.2233291 -35.1875 21.125 C-34.57791946 20.4284153 -34.57791946 20.4284153 -33.95602417 19.71775818 C-33.41994537 19.09989944 -32.88386658 18.48204071 -32.33154297 17.84545898 C-31.80140594 17.23669418 -31.27126892 16.62792938 -30.72506714 16.00071716 C-29.2992556 14.26133349 -28.08025901 12.49841248 -26.8828125 10.59765625 C-19.81176561 0.66279998 -11.45748311 -0.09845643 0 0 Z " fill="#074BC5" transform="translate(181.1875,118.875)"/>
<path d="M0 0 C0.69996094 0.07371826 1.39992187 0.14743652 2.12109375 0.22338867 C32.02271135 4.21507266 57.60129263 20.23436461 76.02832031 43.90551758 C94.03314246 68.325727 101.20284963 98.53350195 96.97192383 128.42651367 C94.2460449 145.45726369 87.67962256 167.39304752 74 179 C71.69 176.36 69.38 173.72 67 171 C68.85575707 165.98080213 71.42691886 161.38272142 73.99023438 156.703125 C85.42928859 135.59149952 88.27211036 108.1383208 82.0390625 84.85742188 C73.80660517 58.30371148 56.62080262 36.77645521 32.09057617 23.72509766 C24.31380733 19.74637278 16.53284124 16.97471356 8 15 C7.13761719 14.77570312 6.27523437 14.55140625 5.38671875 14.3203125 C-7.91330149 11.30040122 -22.73294198 12.28848449 -36 15 C-32.22466306 10.87206373 -27.3284504 8.52371322 -22.5 5.8125 C-21.55640625 5.25369141 -20.6128125 4.69488281 -19.640625 4.11914062 C-12.85345642 0.3222205 -7.72613209 -0.84411277 0 0 Z " fill="#156BF4" transform="translate(163,41)"/>
<path d="M0 0 C-4.40414508 2.99481865 -4.40414508 2.99481865 -7 4 C-10.4375 3.25 -10.4375 3.25 -13 2 C-8.62836676 -0.42868513 -4.86219789 -1.62073263 0 0 Z " fill="#3C4046" transform="translate(133,43)"/>
</svg>
